<svg width="138" height="45" viewBox="0 0 138 45" fill="none" xmlns="http://www.w3.org/2000/svg">
<path fill-rule="evenodd" clip-rule="evenodd" d="M6.48043 23.4669C6.48043 27.716 9.30638 30.1033 12.6197 30.1033C15.9328 30.1033 17.5896 27.955 18.1254 26.1406L23.8264 28.0025C22.7544 31.9175 19.0026 35.9279 12.6197 35.9279C5.55459 35.9279 0 30.6762 0 23.4669C0 16.2099 5.4573 11.0059 12.4246 11.0059C18.9537 11.0059 22.6566 14.9684 23.6802 18.9313L17.8817 20.8408C17.2971 18.8834 15.7868 16.8783 12.5708 16.8783C9.25773 16.8783 6.48043 19.2177 6.48043 23.4669Z" fill="white"/>
<path fill-rule="evenodd" clip-rule="evenodd" d="M26 36H32V12H26V36Z" fill="white"/>
<path fill-rule="evenodd" clip-rule="evenodd" d="M45.7516 11.054H50.0815L53 16.7167H45.7516V26.6021C45.7516 28.6655 46.7245 29.3373 48.5731 29.3373C49.3516 29.3373 50.2274 29.2413 50.5679 29.1455V34.424C49.9841 34.664 48.8164 35 46.919 35C42.2487 35 39.3302 32.2645 39.3302 27.7058V16.7167H35V11.054H36.2165C38.7462 11.054 39.9137 9.42266 39.9137 7.31109V4H45.7516V11.054Z" fill="white"/>
<path fill-rule="evenodd" clip-rule="evenodd" d="M58.4529 45L64.0073 32.6851L54 12H61.1344L67.407 25.8542L73.2005 12H80L65.2042 45H58.4529Z" fill="white"/>
<path fill-rule="evenodd" clip-rule="evenodd" d="M94.6599 8.85756V11.4431H100V16.9014H94.6599V35H88.2133V16.9014H82L84.6158 11.4431H88.2133V8.76195C88.2133 3.4475 91.5808 0 96.8246 0C98.1717 0 99.4706 0.239239 100 0.478689V5.84116C99.6631 5.74555 99.0378 5.60171 97.9794 5.60171C96.5362 5.60171 94.6599 6.22424 94.6599 8.85756Z" fill="white"/>
<path fill-rule="evenodd" clip-rule="evenodd" d="M103 35H109V0H103V35Z" fill="white"/>
<path fill-rule="evenodd" clip-rule="evenodd" d="M131.556 23.5C131.556 19.0461 128.649 16.795 125.5 16.795C122.351 16.795 119.444 19.0461 119.444 23.5C119.444 27.9061 122.351 30.205 125.5 30.205C128.649 30.205 131.556 27.9541 131.556 23.5ZM138 23.5C138 30.7319 132.622 36 125.5 36C118.378 36 113 30.7319 113 23.5C113 16.2203 118.378 11 125.5 11C132.622 11 138 16.2203 138 23.5Z" fill="white"/>
</svg>
